<svg width="52" height="61" viewBox="0 0 52 61" fill="none" xmlns="http://www.w3.org/2000/svg">
<rect width="52" height="52" rx="12" fill="#FED7AA"/>
<path d="M13 26L24.9393 14.0607C25.5251 13.4749 26.4749 13.4749 27.0607 14.0607L39 26M16 23V36.5C16 37.3284 16.6716 38 17.5 38H23V31.5C23 30.6716 23.6716 30 24.5 30H27.5C28.3284 30 29 30.6716 29 31.5V38H34.5C35.3284 38 36 37.3284 36 36.5V23M21 38H32" stroke="#0F172A" stroke-width="1.5" stroke-linecap="round" stroke-linejoin="round"/>
<rect x="17" y="51.1924" width="13" height="13" transform="rotate(-45 17 51.1924)" fill="#FED7AA"/>
</svg>
